<svg xmlns="http://www.w3.org/2000/svg" xmlns:xlink="http://www.w3.org/1999/xlink" width="12" height="13" version="1.1" viewBox="0 0 12 13"><title>Icons/Hamburger menu</title><desc>Created with Sketch.</desc><defs><filter id="filter-1" width="101.6%" height="102.4%" x="-.8%" y="-1.2%" filterUnits="objectBoundingBox"><feOffset dx="0" dy="1" in="SourceAlpha" result="shadowOffsetOuter1"/><feColorMatrix in="shadowOffsetOuter1" result="shadowMatrixOuter1" type="matrix" values="0 0 0 0 0 0 0 0 0 0 0 0 0 0 0 0 0 0 0.12 0"/><feMerge><feMergeNode in="shadowMatrixOuter1"/><feMergeNode in="SourceGraphic"/></feMerge></filter></defs><g id="Pages" fill="none" fill-rule="evenodd" stroke="none" stroke-width="1"><g id="06.-Scrolled-menu---Mobile---Open" transform="translate(-282.000000, -26.000000)"><g id="Scrolled-menu" filter="url(#filter-1)"><g id="Icons/Buttons/Hamburger-Close" transform="translate(272.000000, 16.000000)"><g id="hamburger.menu"><rect id="bounds" width="32" height="32" x="0" y="0"/><path id="Line" fill="#000" fill-rule="nonzero" d="M23,15 C23.5522847,15 24,15.4477153 24,16 C24,16.5128358 23.6139598,16.9355072 23.1166211,16.9932723 L23,17 L9,17 C8.44771525,17 8,16.5522847 8,16 C8,15.4871642 8.38604019,15.0644928 8.88337887,15.0067277 L9,15 L23,15 Z" transform="translate(16.000000, 16.000000) rotate(-45.000000) translate(-16.000000, -16.000000)"/><path id="Line" fill="#000" fill-rule="nonzero" d="M23,15 C23.5522847,15 24,15.4477153 24,16 C24,16.5128358 23.6139598,16.9355072 23.1166211,16.9932723 L23,17 L9,17 C8.44771525,17 8,16.5522847 8,16 C8,15.4871642 8.38604019,15.0644928 8.88337887,15.0067277 L9,15 L23,15 Z" transform="translate(16.000000, 16.000000) rotate(45.000000) translate(-16.000000, -16.000000)"/></g></g></g></g></g></svg>