<svg xmlns="http://www.w3.org/2000/svg" xmlns:xlink="http://www.w3.org/1999/xlink" width="80" height="80" version="1.1" viewBox="0 0 80 80"><title>Icons/How it works/Integrate in minutes</title><desc>Created with Sketch.</desc><g id="Pages" fill="none" fill-rule="evenodd" stroke="none" stroke-width="1"><g id="01.-Desktop-large---from-1208" transform="translate(-140.000000, -1432.000000)"><g id="Group-2" transform="translate(100.000000, 1392.000000)"><g id="Group-3"><g id="Icons/How-it-works/Integrate-in-minutes" transform="translate(40.000000, 40.000000)"><g id="integrate.icon"><circle id="Oval" cx="40" cy="40" r="38.125" fill="#05C0A5" fill-opacity=".053" stroke="#05C0A5" stroke-width="3.75"/><circle id="Oval" cx="40" cy="40" r="5" fill="#05C0A5"/><g id="Group-2" stroke="#05C0A5" stroke-linecap="round" stroke-linejoin="round" stroke-width="3.75" transform="translate(40.241045, 40.287267) rotate(50.000000) translate(-40.241045, -40.287267) translate(39.241045, 10.287267)"><line id="Line" x1=".625" x2=".625" y1="0" y2="40"/></g><g id="Group" stroke="#05C0A5" stroke-linecap="round" stroke-linejoin="round" stroke-width="2.5" transform="translate(10.000000, 10.000000)"><line id="Line-2" x1="30" x2="30" y1="0" y2="3.75"/><line id="Line-2" x1="30" x2="30" y1="56.25" y2="60"/><line id="Line-2" x1="44.063" x2="44.063" y1="3.768" y2="7.518" transform="translate(44.062500, 5.643036) rotate(30.000000) translate(-44.062500, -5.643036)"/><line id="Line-2" x1="15.938" x2="15.938" y1="52.482" y2="56.232" transform="translate(15.937500, 54.356964) rotate(30.000000) translate(-15.937500, -54.356964)"/><line id="Line-2" x1="54.357" x2="54.357" y1="14.063" y2="17.813" transform="translate(54.356964, 15.937500) rotate(60.000000) translate(-54.356964, -15.937500)"/><line id="Line-2" x1="5.643" x2="5.643" y1="42.188" y2="45.938" transform="translate(5.643036, 44.062500) rotate(60.000000) translate(-5.643036, -44.062500)"/><line id="Line-2" x1="58.125" x2="58.125" y1="28.125" y2="31.875" transform="translate(58.125000, 30.000000) rotate(90.000000) translate(-58.125000, -30.000000)"/><line id="Line-2" x1="1.875" x2="1.875" y1="28.125" y2="31.875" transform="translate(1.875000, 30.000000) rotate(90.000000) translate(-1.875000, -30.000000)"/><line id="Line-2" x1="44.063" x2="44.063" y1="52.482" y2="56.232" transform="translate(44.062500, 54.356964) rotate(150.000000) translate(-44.062500, -54.356964)"/><line id="Line-2" x1="15.938" x2="15.938" y1="3.768" y2="7.518" transform="translate(15.937500, 5.643036) rotate(150.000000) translate(-15.937500, -5.643036)"/><line id="Line-2" x1="54.357" x2="54.357" y1="42.188" y2="45.938" transform="translate(54.356964, 44.062500) rotate(120.000000) translate(-54.356964, -44.062500)"/><line id="Line-2" x1="5.643" x2="5.643" y1="14.063" y2="17.813" transform="translate(5.643036, 15.937500) rotate(120.000000) translate(-5.643036, -15.937500)"/></g></g></g></g></g></g></g></svg>